HIERARCHY
ROOT Hips
{
    OFFSET 0.000000 0.000000 0.000000
    CHANNELS 6 Xposition Yposition Zposition Zrotation Xrotation Yrotation
    JOINT Spine
    {
        OFFSET -0.000000 0.081015 0.000000
        CHANNELS 3 Zrotation Xrotation Yrotation
        JOINT Spine1
        {
            OFFSET -0.000000 0.240812 0.000000
            CHANNELS 3 Zrotation Xrotation Yrotation
            JOINT Neck
            {
                OFFSET -0.000000 0.239823 0.021802
                CHANNELS 3 Zrotation Xrotation Yrotation
                JOINT Head
                {
                    OFFSET -0.000000 0.148909 -0.021273
                    CHANNELS 3 Zrotation Xrotation Yrotation
                    End Site
                    {
                        OFFSET -0.000000 0.197598 0.000000
                    }
                }
            }
            JOINT LeftShoulder
            {
                OFFSET 0.039829 0.224972 -0.001181
                CHANNELS 3 Zrotation Xrotation Yrotation
                JOINT LeftArm
                {
                    OFFSET 0.107364 0.000000 0.000000
                    CHANNELS 3 Zrotation Xrotation Yrotation
                    JOINT LeftForeArm
                    {
                        OFFSET 0.283104 0.000000 0.000000
                        CHANNELS 3 Zrotation Xrotation Yrotation
                        JOINT LeftHand
                        {
                            OFFSET 0.324767 0.000000 0.000000
                            CHANNELS 3 Zrotation Xrotation Yrotation
                            End Site
                            {
                                OFFSET 0.148198 0.000000 0.000000
                            }
                        }
                    }
                }
            }
            JOINT RightShoulder
            {
                OFFSET -0.039119 0.224972 -0.001181
                CHANNELS 3 Zrotation Xrotation Yrotation
                JOINT RightArm
                {
                    OFFSET -0.107364 0.000000 0.000000
                    CHANNELS 3 Zrotation Xrotation Yrotation
                    JOINT RightForeArm
                    {
                        OFFSET -0.283104 0.000000 0.000000
                        CHANNELS 3 Zrotation Xrotation Yrotation
                        JOINT RightHand
                        {
                            OFFSET -0.324767 0.000000 0.000000
                            CHANNELS 3 Zrotation Xrotation Yrotation
                            End Site
                            {
                                OFFSET -0.148198 0.000000 0.000000
                            }
                        }
                    }
                }
            }
        }
    }
    JOINT LeftUpLeg
    {
        OFFSET 0.098799 0.000000 0.000000
        CHANNELS 3 Zrotation Xrotation Yrotation
        JOINT LeftLeg
        {
            OFFSET -0.000000 -0.332632 0.000000
            CHANNELS 3 Zrotation Xrotation Yrotation
            JOINT LeftFoot
            {
                OFFSET -0.000000 -0.498967 0.000000
                CHANNELS 3 Zrotation Xrotation Yrotation
                JOINT LeftToeBase
                {
                    OFFSET -0.000000 -0.064219 0.148198
                    CHANNELS 3 Zrotation Xrotation Yrotation
                    End Site
                    {
                        OFFSET -0.000000 0.000000 0.039520
                    }
                }
            }
        }
    }
    JOINT RightUpLeg
    {
        OFFSET -0.098799 0.000000 0.000000
        CHANNELS 3 Zrotation Xrotation Yrotation
        JOINT RightLeg
        {
            OFFSET -0.000000 -0.332632 0.000000
            CHANNELS 3 Zrotation Xrotation Yrotation
            JOINT RightFoot
            {
                OFFSET -0.000000 -0.498967 0.000000
                CHANNELS 3 Zrotation Xrotation Yrotation
                JOINT RightToeBase
                {
                    OFFSET -0.000000 -0.064219 0.148198
                    CHANNELS 3 Zrotation Xrotation Yrotation
                    End Site
                    {
                        OFFSET -0.000000 0.000000 0.039520
                    }
                }
            }
        }
    }
}
MOTION
Frames:    11
Frame Time:    0.010000
-0.209640    0.817505    -0.090111    -7.020273    -1.454016    -66.743446    -1.770530    4.678061    -2.585888    -1.873704    14.235085    -0.643914    -10.077947    47.240856    25.927868    -36.397579    -11.265034    15.112262    -17.322550    18.502722    0.084144    -44.001888    -9.968834    -11.467017    38.121639    -45.671158    -99.896362    56.365158    -5.356598    -7.397004    8.820600    19.555471    3.475096    24.269600    30.071594    26.382109    -117.974709    -29.734182    -9.260902    -53.375961    -33.462814    -21.851856    33.404270    -12.397418    20.626047    -32.813389    46.888847    27.966040    -2.059476    -15.029341    28.902355    0.000000    0.000000    0.000000    -27.379652    -15.768660    -18.807764    15.621015    46.553421    -16.663158    14.143497    -9.450605    5.269214    0.000000    0.000000    0.000000    
-0.208983    0.819428    -0.088827    -6.943125    -1.353103    -66.341034    -1.857839    4.524058    -2.415322    -1.747299    14.061153    -0.605525    -10.113238    46.929344    25.891970    -35.806610    -10.992881    15.333511    -17.273998    18.413673    0.059496    -44.017399    -9.685464    -11.348983    37.866180    -45.822605    -100.076263    56.490997    -5.757545    -7.297253    8.766972    19.952560    3.554807    24.484583    30.832161    26.711275    -118.461800    -29.540012    -9.614003    -53.281963    -33.714893    -22.343103    33.106888    -12.523074    20.446453    -32.332870    46.493919    27.540375    -1.929422    -14.825597    29.010687    0.000000    0.000000    0.000000    -27.144258    -15.290551    -18.959047    15.237000    45.815380    -16.293781    14.365063    -9.250781    4.925651    0.000000    0.000000    0.000000    
-0.208503    0.821409    -0.087276    -6.922594    -1.283444    -65.924103    -1.990067    4.435961    -2.176940    -1.530339    13.875289    -0.556125    -10.205833    46.715588    25.879471    -35.341942    -10.862823    15.470740    -17.296270    18.442518    0.063037    -43.948711    -9.535579    -11.521260    38.221169    -45.807098    -99.706390    56.856468    -5.248820    -6.706703    8.649852    20.288973    3.546391    24.948505    31.485582    26.914875    -118.920189    -29.680887    -9.726646    -53.137897    -33.982300    -22.769365    32.775139    -12.551887    20.276098    -31.800646    46.159306    27.064449    -1.837389    -14.687555    28.963062    0.000000    0.000000    0.000000    -26.897549    -14.577447    -18.980724    14.933097    44.813072    -17.171431    14.670895    -8.733519    5.842977    0.000000    0.000000    0.000000    
-0.207739    0.823544    -0.085666    -6.831857    -1.209579    -65.442642    -2.112187    4.358520    -1.982118    -1.430688    13.606174    -0.507396    -10.246650    46.634735    25.840740    -34.973423    -10.960690    15.486371    -17.295378    18.291416    0.119125    -43.830894    -9.115026    -11.591075    39.049419    -45.826237    -98.898125    57.322979    -4.582504    -6.293390    8.635874    20.661951    3.532598    25.349440    32.364487    27.162447    -119.460068    -29.557417    -10.048123    -53.047581    -34.291489    -23.260580    32.370441    -12.702606    20.112165    -31.192238    45.831963    26.578194    -1.948105    -14.562124    28.927902    0.000000    0.000000    0.000000    -26.665312    -14.176809    -19.067509    14.576758    44.179554    -15.845089    14.618461    -8.646935    4.239495    0.000000    0.000000    0.000000    
-0.206967    0.825747    -0.083856    -6.741855    -1.167138    -64.940071    -2.254877    4.258010    -1.766075    -1.378597    13.408998    -0.444616    -10.224276    46.429680    25.792562    -34.541271    -10.928319    15.583802    -17.205486    18.128077    0.172452    -44.014606    -8.673619    -11.554517    37.867908    -46.031464    -99.882202    57.173512    -5.686669    -6.167402    8.652492    21.107456    3.486555    25.683342    33.484184    27.508936    -120.138596    -29.036766    -10.650320    -52.639168    -34.770805    -23.742329    31.928001    -12.748296    19.804115    -30.744776    45.356571    25.655941    -1.684311    -14.513358    29.427017    0.000000    0.000000    0.000000    -26.462479    -13.604887    -18.857519    14.491907    43.258282    -15.790014    14.717729    -8.370693    3.629687    0.000000    0.000000    0.000000    
-0.206187    0.828060    -0.081946    -6.646663    -1.132243    -64.407463    -2.439376    4.151401    -1.520849    -1.272894    13.246782    -0.378057    -10.227467    46.241440    25.699755    -34.109970    -10.972829    15.599302    -17.192595    18.051470    0.246455    -44.027885    -8.224293    -11.685326    38.258648    -45.942146    -99.683479    57.659275    -4.962665    -5.791827    8.716144    21.574852    3.362339    26.382658    33.664463    27.702583    -120.413651    -29.545549    -10.366381    -52.137894    -34.963451    -23.884813    31.381708    -12.887847    19.726225    -29.884542    45.062710    24.979134    -1.653103    -14.363184    29.328949    0.000000    0.000000    0.000000    -26.236990    -13.015540    -18.700743    14.301733    42.326450    -15.741996    14.670928    -7.995830    2.948544    0.000000    0.000000    0.000000    
-0.205363    0.830383    -0.079938    -6.526277    -1.110436    -63.834763    -2.656396    4.022267    -1.276095    -1.191321    13.101480    -0.308353    -10.160733    46.019871    25.585011    -33.666992    -10.926606    15.647699    -17.168203    18.029737    0.311401    -44.145851    -7.768335    -11.934065    38.474026    -46.173454    -99.290421    57.453148    -5.407709    -5.930486    8.833836    22.092968    3.218967    26.652275    34.716167    28.153646    -121.055473    -28.993237    -10.935890    -52.006886    -35.220764    -24.614016    30.895502    -13.035424    19.495277    -29.356775    44.704231    24.079409    -1.550649    -14.193540    29.705746    0.000000    0.000000    0.000000    -26.003740    -12.310675    -18.548838    14.065374    41.192383    -16.847111    14.953093    -7.414327    3.637040    0.000000    0.000000    0.000000    
-0.204570    0.832744    -0.077748    -6.414351    -1.107525    -63.260410    -2.882190    3.938095    -1.006333    -1.120493    12.880433    -0.229869    -10.184258    45.840363    25.492290    -33.094269    -10.865166    15.720419    -17.206692    18.106081    0.374954    -44.285072    -7.259216    -12.141546    38.355614    -46.514481    -99.298309    57.053204    -5.928711    -5.703819    8.993271    22.667032    3.068114    27.025978    35.676029    28.571655    -121.724129    -28.754335    -11.408614    -51.804169    -35.737972    -25.207861    30.419500    -13.181312    19.248880    -28.925734    44.430397    22.626190    -1.672750    -14.521502    30.409853    0.000000    0.000000    0.000000    -25.814020    -11.788758    -18.236273    14.006116    40.344143    -15.823623    14.900477    -7.362345    1.690335    0.000000    0.000000    0.000000    
-0.203674    0.835069    -0.075517    -6.270594    -1.087528    -62.641781    -3.135980    3.762923    -0.745620    -0.993952    12.777040    -0.158642    -10.189883    45.591972    25.338341    -32.510040    -10.751713    15.758493    -17.311022    18.254948    0.359612    -44.438183    -6.858412    -12.527556    35.262764    -47.869770    -102.485825    54.856140    -6.258197    0.776690    9.101310    23.130392    2.848319    27.456030    36.616631    29.055443    -122.327332    -28.726595    -11.702439    -51.207115    -36.351242    -25.599550    29.732122    -13.173195    19.165651    -27.900585    43.801250    22.905556    -1.772297    -14.375402    29.068188    0.000000    0.000000    0.000000    -25.616022    -11.140944    -17.956238    13.909293    39.276470    -15.961168    15.034652    -7.041256    1.103889    0.000000    0.000000    0.000000    
-0.202765    0.837413    -0.073113    -6.109169    -1.086848    -62.041672    -3.417882    3.598944    -0.476823    -0.881682    12.628516    -0.083574    -10.242681    45.308830    25.203779    -31.813192    -10.500923    15.870108    -17.446749    18.300175    0.412190    -44.192501    -6.489300    -13.084950    37.446323    -47.990715    -100.533401    55.464249    -3.540376    3.213866    9.265141    23.758537    2.681500    27.808550    37.457378    29.480814    -122.889915    -28.763737    -11.966415    -51.306202    -36.681595    -26.324766    29.156599    -13.253633    18.957657    -27.341797    43.357254    21.722488    -1.537624    -14.282269    29.660381    0.000000    0.000000    0.000000    -25.442131    -10.533793    -17.779566    13.717979    38.235706    -16.014668    15.157867    -6.628593    0.456531    0.000000    0.000000    0.000000    
-0.201786    0.839654    -0.070661    -5.952824    -1.072831    -61.401123    -3.689015    3.481289    -0.230379    -0.785390    12.414340    -0.014368    -10.249320    45.063274    25.036892    -31.171593    -10.249640    15.940710    -17.560307    18.358486    0.460849    -43.937176    -6.633312    -13.595059    39.598038    -47.386017    -98.631104    56.442574    -0.174850    4.912200    9.503260    24.461246    2.489132    28.144007    38.077034    29.997257    -123.388924    -29.030684    -12.092594    -51.114330    -37.027950    -27.133739    28.531294    -13.193566    18.741129    -26.608345    42.630890    23.204597    -2.029478    -14.128282    27.227158    0.000000    0.000000    0.000000    -25.265387    -9.889828    -17.683424    13.495363    37.168449    -16.141357    15.283339    -6.180084    -0.063050    0.000000    0.000000    0.000000    
